<svg xmlns="http://www.w3.org/2000/svg" xmlns:xlink="http://www.w3.org/1999/xlink" width="500" zoomAndPan="magnify" viewBox="0 0 375 374.999991" height="500" preserveAspectRatio="xMidYMid meet" version="1.0"><defs><g><g id="id1"/></g><clipPath id="id2"><path d="M 190 110 L 233 110 L 233 144 L 190 144 Z M 190 110 " clip-rule="nonzero"/></clipPath><clipPath id="id3"><path d="M 132.4375 113.261719 L 233.066406 106.710938 L 243.164062 261.847656 L 142.535156 268.394531 Z M 132.4375 113.261719 " clip-rule="nonzero"/></clipPath><clipPath id="id4"><path d="M 132.4375 113.261719 L 233.066406 106.710938 L 243.164062 261.847656 L 142.535156 268.394531 Z M 132.4375 113.261719 " clip-rule="nonzero"/></clipPath><clipPath id="id5"><path d="M 142 131 L 225 131 L 225 241 L 142 241 Z M 142 131 " clip-rule="nonzero"/></clipPath><clipPath id="id6"><path d="M 132.4375 113.261719 L 233.066406 106.710938 L 243.164062 261.847656 L 142.535156 268.394531 Z M 132.4375 113.261719 " clip-rule="nonzero"/></clipPath><clipPath id="id7"><path d="M 132.4375 113.261719 L 233.066406 106.710938 L 243.164062 261.847656 L 142.535156 268.394531 Z M 132.4375 113.261719 " clip-rule="nonzero"/></clipPath><clipPath id="id8"><path d="M 141 258 L 153 258 L 153 268 L 141 268 Z M 141 258 " clip-rule="nonzero"/></clipPath><clipPath id="id9"><path d="M 132.4375 113.261719 L 233.066406 106.710938 L 243.164062 261.847656 L 142.535156 268.394531 Z M 132.4375 113.261719 " clip-rule="nonzero"/></clipPath><clipPath id="id10"><path d="M 132.4375 113.261719 L 233.066406 106.710938 L 243.164062 261.847656 L 142.535156 268.394531 Z M 132.4375 113.261719 " clip-rule="nonzero"/></clipPath><clipPath id="id11"><path d="M 139 229 L 177 229 L 177 259 L 139 259 Z M 139 229 " clip-rule="nonzero"/></clipPath><clipPath id="id12"><path d="M 132.4375 113.261719 L 233.066406 106.710938 L 243.164062 261.847656 L 142.535156 268.394531 Z M 132.4375 113.261719 " clip-rule="nonzero"/></clipPath><clipPath id="id13"><path d="M 132.4375 113.261719 L 233.066406 106.710938 L 243.164062 261.847656 L 142.535156 268.394531 Z M 132.4375 113.261719 " clip-rule="nonzero"/></clipPath></defs><g fill="rgb(100%, 100%, 100%)" fill-opacity="1"><g transform="translate(37.536538, 235.435677)"><g><path d="M 7.140625 -36.40625 C 3.703125 -38.082031 1.984375 -41.125 1.984375 -45.53125 C 1.984375 -49.945312 3.75 -53.035156 7.28125 -54.796875 C 37.550781 -72.710938 54.9375 -83.035156 59.4375 -85.765625 C 63.9375 -88.503906 66.628906 -90.007812 67.515625 -90.28125 C 68.484375 -90.71875 69.628906 -90.9375 70.953125 -90.9375 C 73.335938 -90.9375 75.804688 -88.773438 78.359375 -84.453125 C 80.035156 -81.722656 80.875 -79.671875 80.875 -78.296875 C 80.875 -76.929688 80.566406 -75.765625 79.953125 -74.796875 C 79.160156 -73.378906 77.351562 -71.742188 74.53125 -69.890625 C 48.226562 -54.359375 34.546875 -46.238281 33.484375 -45.53125 L 74.53125 -21.1875 C 76.207031 -20.207031 77.394531 -19.410156 78.09375 -18.796875 C 80.039062 -17.210938 81.015625 -15.492188 81.015625 -13.640625 C 81.015625 -11.867188 80.238281 -9.722656 78.6875 -7.203125 C 77.144531 -4.691406 75.753906 -2.90625 74.515625 -1.84375 C 73.285156 -0.789062 72.007812 -0.265625 70.6875 -0.265625 C 68.925781 -0.265625 66.632812 -1.101562 63.8125 -2.78125 Z M 7.140625 -36.40625 "/></g></g></g><g fill="rgb(100%, 100%, 100%)" fill-opacity="1"><g transform="translate(120.510593, 235.435677)"><g/></g></g><g fill="rgb(100%, 100%, 100%)" fill-opacity="1"><g transform="translate(187.490431, 235.435677)"><g/></g></g><g fill="rgb(100%, 100%, 100%)" fill-opacity="1"><g transform="translate(220.98035, 235.435677)"><g/></g></g><g fill="rgb(100%, 100%, 100%)" fill-opacity="1"><g transform="translate(254.452857, 235.435677)"><g><path d="M 75.59375 -54.796875 C 79.125 -53.035156 80.890625 -49.945312 80.890625 -45.53125 C 80.890625 -41.125 79.164062 -38.082031 75.71875 -36.40625 L 19.203125 -2.78125 C 14.703125 0.132812 11.082031 0.441406 8.34375 -1.859375 C 7.113281 -2.910156 5.835938 -4.5 4.515625 -6.625 C 2.742188 -9.53125 1.859375 -11.644531 1.859375 -12.96875 C 1.859375 -14.289062 2.125 -15.441406 2.65625 -16.421875 C 3.625 -17.921875 5.519531 -19.507812 8.34375 -21.1875 L 49.515625 -45.53125 L 8.484375 -69.890625 C 6.890625 -70.859375 5.695312 -71.65625 4.90625 -72.28125 C 2.96875 -73.957031 2 -75.765625 2 -77.703125 C 2 -79.472656 2.75 -81.59375 4.25 -84.0625 C 6.976562 -88.644531 9.535156 -90.9375 11.921875 -90.9375 C 14.035156 -90.9375 16.414062 -90.097656 19.0625 -88.421875 Z M 75.59375 -54.796875 "/></g></g></g><g clip-path="url(#id2)"><g clip-path="url(#id3)"><g clip-path="url(#id4)"><path fill="rgb(100%, 100%, 100%)" d="M 231.242188 135.976562 C 234.492188 129.351562 231.734375 121.359375 225.074219 118.128906 L 212.21875 111.886719 C 205.5625 108.65625 197.527344 111.410156 194.277344 118.035156 L 190.742188 125.230469 L 227.707031 143.171875 Z M 231.242188 135.976562 " fill-opacity="1" fill-rule="nonzero"/></g></g></g><g clip-path="url(#id5)"><g clip-path="url(#id6)"><g clip-path="url(#id7)"><path fill="rgb(100%, 100%, 100%)" d="M 187.601562 131.628906 L 224.566406 149.570312 L 179.945312 240.472656 L 142.980469 222.535156 Z M 187.601562 131.628906 " fill-opacity="1" fill-rule="nonzero"/></g></g></g><g clip-path="url(#id8)"><g clip-path="url(#id9)"><g clip-path="url(#id10)"><path fill="rgb(100%, 100%, 100%)" d="M 147.890625 266.15625 L 152.441406 263.101562 L 141.960938 258.015625 L 142.34375 263.464844 C 142.578125 266.835938 145.074219 268.046875 147.890625 266.15625 Z M 147.890625 266.15625 " fill-opacity="1" fill-rule="nonzero"/></g></g></g><g clip-path="url(#id11)"><g clip-path="url(#id12)"><g clip-path="url(#id13)"><path fill="rgb(100%, 100%, 100%)" d="M 176.03125 247.277344 C 176.070312 247.253906 176.097656 247.226562 176.132812 247.203125 L 139.992188 229.664062 C 139.996094 229.703125 139.992188 229.742188 139.996094 229.785156 L 141.390625 249.816406 L 159.292969 258.503906 Z M 176.03125 247.277344 " fill-opacity="1" fill-rule="nonzero"/></g></g></g></svg>