<svg xmlns="http://www.w3.org/2000/svg" xmlns:xlink="http://www.w3.org/1999/xlink" width="576" zoomAndPan="magnify" viewBox="0 0 432 287.999989" height="384" preserveAspectRatio="xMidYMid meet" version="1.0"><defs><g><g id="id1"/></g><clipPath id="id2"><path d="M 220 47 L 273 47 L 273 89 L 220 89 Z M 220 47 " clip-rule="nonzero"/></clipPath><clipPath id="id3"><path d="M 147.28125 51.351562 L 272.867188 43.175781 L 285.46875 236.785156 L 159.886719 244.957031 Z M 147.28125 51.351562 " clip-rule="nonzero"/></clipPath><clipPath id="id4"><path d="M 147.28125 51.351562 L 272.867188 43.175781 L 285.46875 236.785156 L 159.886719 244.957031 Z M 147.28125 51.351562 " clip-rule="nonzero"/></clipPath><clipPath id="id5"><path d="M 160 74 L 263 74 L 263 211 L 160 211 Z M 160 74 " clip-rule="nonzero"/></clipPath><clipPath id="id6"><path d="M 147.28125 51.351562 L 272.867188 43.175781 L 285.46875 236.785156 L 159.886719 244.957031 Z M 147.28125 51.351562 " clip-rule="nonzero"/></clipPath><clipPath id="id7"><path d="M 147.28125 51.351562 L 272.867188 43.175781 L 285.46875 236.785156 L 159.886719 244.957031 Z M 147.28125 51.351562 " clip-rule="nonzero"/></clipPath><clipPath id="id8"><path d="M 159 232 L 173 232 L 173 244 L 159 244 Z M 159 232 " clip-rule="nonzero"/></clipPath><clipPath id="id9"><path d="M 147.28125 51.351562 L 272.867188 43.175781 L 285.46875 236.785156 L 159.886719 244.957031 Z M 147.28125 51.351562 " clip-rule="nonzero"/></clipPath><clipPath id="id10"><path d="M 147.28125 51.351562 L 272.867188 43.175781 L 285.46875 236.785156 L 159.886719 244.957031 Z M 147.28125 51.351562 " clip-rule="nonzero"/></clipPath><clipPath id="id11"><path d="M 156 196 L 202 196 L 202 233 L 156 233 Z M 156 196 " clip-rule="nonzero"/></clipPath><clipPath id="id12"><path d="M 147.28125 51.351562 L 272.867188 43.175781 L 285.46875 236.785156 L 159.886719 244.957031 Z M 147.28125 51.351562 " clip-rule="nonzero"/></clipPath><clipPath id="id13"><path d="M 147.28125 51.351562 L 272.867188 43.175781 L 285.46875 236.785156 L 159.886719 244.957031 Z M 147.28125 51.351562 " clip-rule="nonzero"/></clipPath></defs><g fill="rgb(100%, 100%, 100%)" fill-opacity="1"><g transform="translate(28.845606, 203.823725)"><g><path d="M 8.921875 -45.4375 C 4.628906 -47.519531 2.484375 -51.316406 2.484375 -56.828125 C 2.484375 -62.335938 4.6875 -66.191406 9.09375 -68.390625 C 46.863281 -90.753906 68.554688 -103.640625 74.171875 -107.046875 C 79.785156 -110.460938 83.144531 -112.335938 84.25 -112.671875 C 85.46875 -113.222656 86.898438 -113.5 88.546875 -113.5 C 91.523438 -113.5 94.609375 -110.800781 97.796875 -105.40625 C 99.890625 -101.988281 100.9375 -99.425781 100.9375 -97.71875 C 100.9375 -96.007812 100.550781 -94.550781 99.78125 -93.34375 C 98.789062 -91.582031 96.535156 -89.546875 93.015625 -87.234375 C 60.191406 -67.847656 43.117188 -57.710938 41.796875 -56.828125 L 93.015625 -26.4375 C 95.097656 -25.21875 96.582031 -24.222656 97.46875 -23.453125 C 99.894531 -21.472656 101.109375 -19.328125 101.109375 -17.015625 C 101.109375 -14.816406 100.144531 -12.144531 98.21875 -9 C 96.289062 -5.863281 94.554688 -3.632812 93.015625 -2.3125 C 91.472656 -0.988281 89.875 -0.328125 88.21875 -0.328125 C 86.019531 -0.328125 83.15625 -1.375 79.625 -3.46875 Z M 8.921875 -45.4375 "/></g></g></g><g fill="rgb(100%, 100%, 100%)" fill-opacity="1"><g transform="translate(132.397218, 203.823725)"><g/></g></g><g fill="rgb(100%, 100%, 100%)" fill-opacity="1"><g transform="translate(174.192634, 203.823725)"><g/></g></g><g fill="rgb(100%, 100%, 100%)" fill-opacity="1"><g transform="translate(215.98805, 203.823725)"><g/></g></g><g fill="rgb(100%, 100%, 100%)" fill-opacity="1"><g transform="translate(257.783466, 203.823725)"><g/></g></g><g fill="rgb(100%, 100%, 100%)" fill-opacity="1"><g transform="translate(299.557152, 203.823725)"><g><path d="M 94.328125 -68.390625 C 98.734375 -66.191406 100.9375 -62.335938 100.9375 -56.828125 C 100.9375 -51.316406 98.785156 -47.519531 94.484375 -45.4375 L 23.953125 -3.46875 C 18.328125 0.164062 13.8125 0.550781 10.40625 -2.3125 C 8.863281 -3.632812 7.265625 -5.617188 5.609375 -8.265625 C 3.410156 -11.898438 2.3125 -14.539062 2.3125 -16.1875 C 2.3125 -17.84375 2.640625 -19.273438 3.296875 -20.484375 C 4.503906 -22.359375 6.875 -24.34375 10.40625 -26.4375 L 61.78125 -56.828125 L 10.5625 -87.234375 C 8.582031 -88.441406 7.097656 -89.429688 6.109375 -90.203125 C 3.679688 -92.296875 2.46875 -94.550781 2.46875 -96.96875 C 2.46875 -99.175781 3.40625 -101.820312 5.28125 -104.90625 C 8.695312 -110.632812 11.890625 -113.5 14.859375 -113.5 C 17.503906 -113.5 20.476562 -112.453125 23.78125 -110.359375 Z M 94.328125 -68.390625 "/></g></g></g><g clip-path="url(#id2)"><g clip-path="url(#id3)"><g clip-path="url(#id4)"><path fill="rgb(100%, 100%, 100%)" d="M 270.589844 79.695312 C 274.648438 71.429688 271.203125 61.457031 262.894531 57.425781 L 246.847656 49.636719 C 238.539062 45.605469 228.515625 49.039062 224.457031 57.304688 L 220.046875 66.289062 L 266.179688 88.679688 Z M 270.589844 79.695312 " fill-opacity="1" fill-rule="nonzero"/></g></g></g><g clip-path="url(#id5)"><g clip-path="url(#id6)"><g clip-path="url(#id7)"><path fill="rgb(100%, 100%, 100%)" d="M 216.125 74.273438 L 262.257812 96.664062 L 206.570312 210.113281 L 160.441406 187.722656 Z M 216.125 74.273438 " fill-opacity="1" fill-rule="nonzero"/></g></g></g><g clip-path="url(#id8)"><g clip-path="url(#id9)"><g clip-path="url(#id10)"><path fill="rgb(100%, 100%, 100%)" d="M 166.566406 242.164062 L 172.246094 238.351562 L 159.167969 232.003906 L 159.644531 238.804688 C 159.933594 243.007812 163.050781 244.519531 166.566406 242.164062 Z M 166.566406 242.164062 " fill-opacity="1" fill-rule="nonzero"/></g></g></g><g clip-path="url(#id11)"><g clip-path="url(#id12)"><g clip-path="url(#id13)"><path fill="rgb(100%, 100%, 100%)" d="M 201.6875 218.601562 C 201.734375 218.570312 201.769531 218.539062 201.8125 218.511719 L 156.710938 196.621094 C 156.714844 196.671875 156.710938 196.71875 156.714844 196.773438 L 158.457031 221.769531 L 180.800781 232.613281 Z M 201.6875 218.601562 " fill-opacity="1" fill-rule="nonzero"/></g></g></g></svg>