<svg xmlns="http://www.w3.org/2000/svg" xmlns:xlink="http://www.w3.org/1999/xlink" width="500" zoomAndPan="magnify" viewBox="0 0 375 374.999991" height="500" preserveAspectRatio="xMidYMid meet" version="1.0"><defs><g><g id="id1"/><g id="id2"/></g><clipPath id="id3"><path d="M 188 132 L 204 132 L 204 144 L 188 144 Z M 188 132 " clip-rule="nonzero"/></clipPath><clipPath id="id4"><path d="M 167.84375 132.988281 L 203.765625 130.652344 L 207.371094 186.035156 L 171.449219 188.371094 Z M 167.84375 132.988281 " clip-rule="nonzero"/></clipPath><clipPath id="id5"><path d="M 167.84375 132.988281 L 203.765625 130.652344 L 207.371094 186.035156 L 171.449219 188.371094 Z M 167.84375 132.988281 " clip-rule="nonzero"/></clipPath><clipPath id="id6"><path d="M 171 139 L 201 139 L 201 179 L 171 179 Z M 171 139 " clip-rule="nonzero"/></clipPath><clipPath id="id7"><path d="M 167.84375 132.988281 L 203.765625 130.652344 L 207.371094 186.035156 L 171.449219 188.371094 Z M 167.84375 132.988281 " clip-rule="nonzero"/></clipPath><clipPath id="id8"><path d="M 167.84375 132.988281 L 203.765625 130.652344 L 207.371094 186.035156 L 171.449219 188.371094 Z M 167.84375 132.988281 " clip-rule="nonzero"/></clipPath><clipPath id="id9"><path d="M 171 184 L 175 184 L 175 188 L 171 188 Z M 171 184 " clip-rule="nonzero"/></clipPath><clipPath id="id10"><path d="M 167.84375 132.988281 L 203.765625 130.652344 L 207.371094 186.035156 L 171.449219 188.371094 Z M 167.84375 132.988281 " clip-rule="nonzero"/></clipPath><clipPath id="id11"><path d="M 167.84375 132.988281 L 203.765625 130.652344 L 207.371094 186.035156 L 171.449219 188.371094 Z M 167.84375 132.988281 " clip-rule="nonzero"/></clipPath><clipPath id="id12"><path d="M 170 174 L 184 174 L 184 185 L 170 185 Z M 170 174 " clip-rule="nonzero"/></clipPath><clipPath id="id13"><path d="M 167.84375 132.988281 L 203.765625 130.652344 L 207.371094 186.035156 L 171.449219 188.371094 Z M 167.84375 132.988281 " clip-rule="nonzero"/></clipPath><clipPath id="id14"><path d="M 167.84375 132.988281 L 203.765625 130.652344 L 207.371094 186.035156 L 171.449219 188.371094 Z M 167.84375 132.988281 " clip-rule="nonzero"/></clipPath></defs><g fill="rgb(100%, 100%, 100%)" fill-opacity="1"><g transform="translate(133.9632, 176.605973)"><g><path d="M 2.546875 -13 C 1.316406 -13.59375 0.703125 -14.675781 0.703125 -16.25 C 0.703125 -17.820312 1.332031 -18.925781 2.59375 -19.5625 C 13.40625 -25.957031 19.613281 -29.640625 21.21875 -30.609375 C 22.820312 -31.585938 23.78125 -32.125 24.09375 -32.21875 C 24.445312 -32.375 24.859375 -32.453125 25.328125 -32.453125 C 26.179688 -32.453125 27.0625 -31.679688 27.96875 -30.140625 C 28.570312 -29.171875 28.875 -28.441406 28.875 -27.953125 C 28.875 -27.460938 28.757812 -27.046875 28.53125 -26.703125 C 28.25 -26.191406 27.609375 -25.609375 26.609375 -24.953125 C 17.210938 -19.398438 12.328125 -16.5 11.953125 -16.25 L 26.609375 -7.5625 C 27.203125 -7.21875 27.625 -6.929688 27.875 -6.703125 C 28.570312 -6.140625 28.921875 -5.523438 28.921875 -4.859375 C 28.921875 -4.234375 28.644531 -3.472656 28.09375 -2.578125 C 27.539062 -1.679688 27.039062 -1.039062 26.59375 -0.65625 C 26.15625 -0.28125 25.703125 -0.09375 25.234375 -0.09375 C 24.597656 -0.09375 23.78125 -0.394531 22.78125 -1 Z M 2.546875 -13 "/></g></g></g><g fill="rgb(100%, 100%, 100%)" fill-opacity="1"><g transform="translate(163.584845, 176.605973)"><g/></g></g><g fill="rgb(100%, 100%, 100%)" fill-opacity="1"><g transform="translate(175.540708, 176.605973)"><g/></g></g><g fill="rgb(100%, 100%, 100%)" fill-opacity="1"><g transform="translate(187.496572, 176.605973)"><g/></g></g><g fill="rgb(100%, 100%, 100%)" fill-opacity="1"><g transform="translate(199.452436, 176.605973)"><g/></g></g><g fill="rgb(100%, 100%, 100%)" fill-opacity="1"><g transform="translate(211.402083, 176.605973)"><g><path d="M 26.984375 -19.5625 C 28.242188 -18.925781 28.875 -17.820312 28.875 -16.25 C 28.875 -14.675781 28.257812 -13.59375 27.03125 -13 L 6.859375 -1 C 5.242188 0.0390625 3.953125 0.15625 2.984375 -0.65625 C 2.535156 -1.039062 2.078125 -1.609375 1.609375 -2.359375 C 0.972656 -3.398438 0.65625 -4.15625 0.65625 -4.625 C 0.65625 -5.101562 0.753906 -5.515625 0.953125 -5.859375 C 1.296875 -6.390625 1.972656 -6.957031 2.984375 -7.5625 L 17.671875 -16.25 L 3.03125 -24.953125 C 2.457031 -25.296875 2.03125 -25.578125 1.75 -25.796875 C 1.050781 -26.398438 0.703125 -27.046875 0.703125 -27.734375 C 0.703125 -28.367188 0.972656 -29.125 1.515625 -30 C 2.492188 -31.632812 3.40625 -32.453125 4.25 -32.453125 C 5.007812 -32.453125 5.859375 -32.15625 6.796875 -31.5625 Z M 26.984375 -19.5625 "/></g></g></g><g clip-path="url(#id3)"><g clip-path="url(#id4)"><g clip-path="url(#id5)"><path fill="rgb(100%, 100%, 100%)" d="M 203.117188 141.097656 C 204.277344 138.734375 203.289062 135.882812 200.914062 134.726562 L 196.324219 132.5 C 193.949219 131.347656 191.082031 132.328125 189.917969 134.695312 L 188.65625 137.261719 L 201.855469 143.667969 Z M 203.117188 141.097656 " fill-opacity="1" fill-rule="nonzero"/></g></g></g><g clip-path="url(#id6)"><g clip-path="url(#id7)"><g clip-path="url(#id8)"><path fill="rgb(100%, 100%, 100%)" d="M 187.535156 139.546875 L 200.730469 145.953125 L 184.804688 178.40625 L 171.605469 172 Z M 187.535156 139.546875 " fill-opacity="1" fill-rule="nonzero"/></g></g></g><g clip-path="url(#id9)"><g clip-path="url(#id10)"><g clip-path="url(#id11)"><path fill="rgb(100%, 100%, 100%)" d="M 173.359375 187.574219 L 174.984375 186.484375 L 171.242188 184.667969 L 171.378906 186.613281 C 171.460938 187.816406 172.351562 188.246094 173.359375 187.574219 Z M 173.359375 187.574219 " fill-opacity="1" fill-rule="nonzero"/></g></g></g><g clip-path="url(#id12)"><g clip-path="url(#id13)"><g clip-path="url(#id14)"><path fill="rgb(100%, 100%, 100%)" d="M 183.40625 180.832031 C 183.417969 180.824219 183.429688 180.816406 183.441406 180.808594 L 170.539062 174.546875 C 170.542969 174.558594 170.539062 174.574219 170.542969 174.589844 L 171.039062 181.738281 L 177.429688 184.84375 Z M 183.40625 180.832031 " fill-opacity="1" fill-rule="nonzero"/></g></g></g><g fill="rgb(100%, 100%, 100%)" fill-opacity="1"><g transform="translate(12.679691, 234.330131)"><g><path d="M 21.140625 -8.15625 L 21.90625 -8.703125 C 22.863281 -9.265625 23.539062 -9.546875 23.9375 -9.546875 C 24.820312 -9.546875 25.769531 -8.753906 26.78125 -7.171875 C 27.40625 -6.179688 27.71875 -5.390625 27.71875 -4.796875 C 27.71875 -4.203125 27.523438 -3.707031 27.140625 -3.3125 C 26.765625 -2.914062 26.320312 -2.5625 25.8125 -2.25 C 25.300781 -1.9375 24.8125 -1.640625 24.34375 -1.359375 C 23.875 -1.078125 22.914062 -0.707031 21.46875 -0.25 C 20.03125 0.195312 18.640625 0.421875 17.296875 0.421875 C 15.953125 0.421875 14.59375 0.242188 13.21875 -0.109375 C 11.851562 -0.460938 10.441406 -1.054688 8.984375 -1.890625 C 7.523438 -2.722656 6.210938 -3.738281 5.046875 -4.9375 C 3.890625 -6.144531 2.9375 -7.6875 2.1875 -9.5625 C 1.4375 -11.445312 1.0625 -13.492188 1.0625 -15.703125 C 1.0625 -17.910156 1.425781 -19.910156 2.15625 -21.703125 C 2.894531 -23.503906 3.835938 -24.992188 4.984375 -26.171875 C 6.128906 -27.347656 7.441406 -28.332031 8.921875 -29.125 C 11.691406 -30.65625 14.476562 -31.421875 17.28125 -31.421875 C 18.613281 -31.421875 19.960938 -31.210938 21.328125 -30.796875 C 22.703125 -30.390625 23.742188 -29.972656 24.453125 -29.546875 L 25.46875 -28.953125 C 25.976562 -28.640625 26.375 -28.382812 26.65625 -28.1875 C 27.394531 -27.59375 27.765625 -26.921875 27.765625 -26.171875 C 27.765625 -25.421875 27.46875 -24.632812 26.875 -23.8125 C 25.769531 -22.289062 24.78125 -21.53125 23.90625 -21.53125 C 23.394531 -21.53125 22.671875 -21.835938 21.734375 -22.453125 C 20.546875 -23.421875 18.960938 -23.90625 16.984375 -23.90625 C 15.140625 -23.90625 13.328125 -23.265625 11.546875 -21.984375 C 10.703125 -21.367188 9.992188 -20.492188 9.421875 -19.359375 C 8.859375 -18.222656 8.578125 -16.941406 8.578125 -15.515625 C 8.578125 -14.085938 8.859375 -12.804688 9.421875 -11.671875 C 9.992188 -10.535156 10.71875 -9.644531 11.59375 -9 C 13.3125 -7.75 15.109375 -7.125 16.984375 -7.125 C 17.859375 -7.125 18.679688 -7.238281 19.453125 -7.46875 C 20.234375 -7.695312 20.796875 -7.925781 21.140625 -8.15625 Z M 21.140625 -8.15625 "/></g></g></g><g fill="rgb(100%, 100%, 100%)" fill-opacity="1"><g transform="translate(41.50802, 234.330131)"><g><path d="M 14.09375 -22.28125 C 16.925781 -22.28125 19.28125 -21.203125 21.15625 -19.046875 C 23.039062 -16.898438 23.984375 -14.273438 23.984375 -11.171875 L 23.984375 -3.6875 C 23.984375 -3.039062 23.960938 -2.550781 23.921875 -2.21875 C 23.878906 -1.894531 23.742188 -1.523438 23.515625 -1.109375 C 23.148438 -0.367188 22.0625 0 20.25 0 C 18.519531 0 17.445312 -0.367188 17.03125 -1.109375 C 16.800781 -1.523438 16.664062 -1.90625 16.625 -2.25 C 16.582031 -2.59375 16.5625 -3.101562 16.5625 -3.78125 L 16.5625 -11.203125 C 16.5625 -12.367188 16.234375 -13.273438 15.578125 -13.921875 C 14.929688 -14.578125 14.101562 -14.90625 13.09375 -14.90625 C 12.09375 -14.90625 11.207031 -14.597656 10.4375 -13.984375 C 9.675781 -13.378906 9.238281 -12.691406 9.125 -11.921875 L 9.125 -3.6875 C 9.125 -3.039062 9.101562 -2.550781 9.0625 -2.21875 C 9.019531 -1.894531 8.882812 -1.523438 8.65625 -1.109375 C 8.289062 -0.367188 7.203125 0 5.390625 0 C 3.609375 0 2.519531 -0.378906 2.125 -1.140625 C 1.925781 -1.566406 1.804688 -1.9375 1.765625 -2.25 C 1.722656 -2.5625 1.703125 -3.054688 1.703125 -3.734375 L 1.703125 -29.125 C 1.703125 -29.769531 1.722656 -30.253906 1.765625 -30.578125 C 1.804688 -30.910156 1.925781 -31.273438 2.125 -31.671875 C 2.519531 -32.429688 3.625 -32.8125 5.4375 -32.8125 C 7.21875 -32.8125 8.289062 -32.429688 8.65625 -31.671875 C 8.882812 -31.242188 9.019531 -30.867188 9.0625 -30.546875 C 9.101562 -30.222656 9.125 -29.734375 9.125 -29.078125 L 9.125 -19.703125 C 10.539062 -21.421875 12.195312 -22.28125 14.09375 -22.28125 Z M 14.09375 -22.28125 "/></g></g></g><g fill="rgb(100%, 100%, 100%)" fill-opacity="1"><g transform="translate(67.194535, 234.330131)"><g><path d="M 16.890625 -22.109375 C 17.429688 -21.941406 17.878906 -21.648438 18.234375 -21.234375 C 18.585938 -20.828125 18.765625 -20.171875 18.765625 -19.265625 C 18.765625 -18.367188 18.492188 -17.378906 17.953125 -16.296875 C 17.421875 -15.222656 16.644531 -14.6875 15.625 -14.6875 C 15.113281 -14.6875 14.625 -14.800781 14.15625 -15.03125 C 13.6875 -15.257812 13.070312 -15.375 12.3125 -15.375 C 11.550781 -15.375 10.835938 -15.101562 10.171875 -14.5625 C 9.503906 -14.019531 9.171875 -13.367188 9.171875 -12.609375 L 9.171875 -3.6875 C 9.171875 -3.039062 9.148438 -2.550781 9.109375 -2.21875 C 9.066406 -1.894531 8.929688 -1.523438 8.703125 -1.109375 C 8.273438 -0.367188 7.171875 0 5.390625 0 C 4.035156 0 3.0625 -0.238281 2.46875 -0.71875 C 2.007812 -1.113281 1.753906 -1.722656 1.703125 -2.546875 C 1.703125 -2.828125 1.703125 -3.238281 1.703125 -3.78125 L 1.703125 -18.671875 C 1.703125 -19.328125 1.722656 -19.816406 1.765625 -20.140625 C 1.804688 -20.460938 1.925781 -20.820312 2.125 -21.21875 C 2.519531 -21.988281 3.625 -22.375 5.4375 -22.375 C 7.132812 -22.375 8.195312 -22.046875 8.625 -21.390625 C 8.925781 -20.941406 9.078125 -20.476562 9.078125 -20 C 9.222656 -20.195312 9.429688 -20.4375 9.703125 -20.71875 C 9.972656 -21 10.546875 -21.378906 11.421875 -21.859375 C 12.296875 -22.335938 13.066406 -22.578125 13.734375 -22.578125 C 14.398438 -22.578125 14.957031 -22.539062 15.40625 -22.46875 C 15.863281 -22.40625 16.359375 -22.285156 16.890625 -22.109375 Z M 16.890625 -22.109375 "/></g></g></g><g fill="rgb(100%, 100%, 100%)" fill-opacity="1"><g transform="translate(86.597408, 234.330131)"><g><path d="M 1.703125 -18.640625 C 1.703125 -19.285156 1.722656 -19.769531 1.765625 -20.09375 C 1.804688 -20.425781 1.925781 -20.800781 2.125 -21.21875 C 2.519531 -21.957031 3.625 -22.328125 5.4375 -22.328125 C 6.789062 -22.328125 7.753906 -22.085938 8.328125 -21.609375 C 8.804688 -21.210938 9.054688 -20.601562 9.078125 -19.78125 C 9.109375 -19.5 9.125 -19.085938 9.125 -18.546875 L 9.125 -3.6875 C 9.125 -3.039062 9.101562 -2.550781 9.0625 -2.21875 C 9.019531 -1.894531 8.882812 -1.523438 8.65625 -1.109375 C 8.289062 -0.367188 7.203125 0 5.390625 0 C 3.609375 0 2.519531 -0.378906 2.125 -1.140625 C 1.925781 -1.566406 1.804688 -1.9375 1.765625 -2.25 C 1.722656 -2.5625 1.703125 -3.054688 1.703125 -3.734375 Z M 8.671875 -26.5 C 8.460938 -26.09375 8.085938 -25.804688 7.546875 -25.640625 C 7.015625 -25.472656 6.300781 -25.390625 5.40625 -25.390625 C 4.519531 -25.390625 3.804688 -25.472656 3.265625 -25.640625 C 2.734375 -25.804688 2.359375 -26.101562 2.140625 -26.53125 C 1.929688 -26.957031 1.804688 -27.332031 1.765625 -27.65625 C 1.722656 -27.976562 1.703125 -28.460938 1.703125 -29.109375 C 1.703125 -29.765625 1.722656 -30.253906 1.765625 -30.578125 C 1.804688 -30.910156 1.925781 -31.273438 2.125 -31.671875 C 2.519531 -32.429688 3.625 -32.8125 5.4375 -32.8125 C 7.21875 -32.8125 8.289062 -32.429688 8.65625 -31.671875 C 8.882812 -31.242188 9.019531 -30.867188 9.0625 -30.546875 C 9.101562 -30.222656 9.125 -29.734375 9.125 -29.078125 C 9.125 -28.429688 9.101562 -27.941406 9.0625 -27.609375 C 9.019531 -27.285156 8.890625 -26.914062 8.671875 -26.5 Z M 8.671875 -26.5 "/></g></g></g><g fill="rgb(100%, 100%, 100%)" fill-opacity="1"><g transform="translate(97.423953, 234.330131)"><g><path d="M 1.875 -2 C 1.332031 -2.332031 1.0625 -2.867188 1.0625 -3.609375 C 1.0625 -4.347656 1.597656 -5.46875 2.671875 -6.96875 C 2.984375 -7.445312 3.484375 -7.6875 4.171875 -7.6875 C 4.867188 -7.6875 5.8125 -7.335938 7 -6.640625 C 8.1875 -5.953125 9.265625 -5.609375 10.234375 -5.609375 C 11.960938 -5.609375 12.828125 -5.945312 12.828125 -6.625 C 12.828125 -7.15625 11.875 -7.550781 9.96875 -7.8125 C 8.1875 -8.0625 6.421875 -8.726562 4.671875 -9.8125 C 3.847656 -10.320312 3.164062 -11.117188 2.625 -12.203125 C 2.09375 -13.296875 1.828125 -14.59375 1.828125 -16.09375 C 1.828125 -20.5625 4.894531 -22.796875 11.03125 -22.796875 C 13.039062 -22.796875 15.109375 -22.316406 17.234375 -21.359375 C 18.222656 -20.898438 18.71875 -20.332031 18.71875 -19.65625 C 18.71875 -18.976562 18.40625 -18.144531 17.78125 -17.15625 C 17.164062 -16.164062 16.53125 -15.671875 15.875 -15.671875 C 15.539062 -15.671875 14.910156 -15.878906 13.984375 -16.296875 C 13.066406 -16.722656 12.070312 -16.9375 11 -16.9375 C 9.320312 -16.9375 8.484375 -16.625 8.484375 -16 C 8.484375 -15.15625 9.445312 -14.601562 11.375 -14.34375 C 13.238281 -14.144531 15.050781 -13.609375 16.8125 -12.734375 C 17.632812 -12.335938 18.320312 -11.648438 18.875 -10.671875 C 19.425781 -9.703125 19.703125 -8.476562 19.703125 -7 C 19.703125 -5.53125 19.425781 -4.28125 18.875 -3.25 C 18.320312 -2.21875 17.550781 -1.445312 16.5625 -0.9375 C 14.75 -0.0625 12.472656 0.375 9.734375 0.375 C 7.003906 0.375 4.382812 -0.414062 1.875 -2 Z M 1.875 -2 "/></g></g></g><g fill="rgb(100%, 100%, 100%)" fill-opacity="1"><g transform="translate(118.185445, 234.330131)"><g><path d="M 14.6875 -14.859375 L 11.921875 -15.03125 L 11.921875 -9.171875 C 11.921875 -8.410156 12.039062 -7.859375 12.28125 -7.515625 C 12.53125 -7.171875 12.984375 -7 13.640625 -7 C 14.304688 -7 14.816406 -6.976562 15.171875 -6.9375 C 15.523438 -6.894531 15.898438 -6.757812 16.296875 -6.53125 C 16.953125 -6.164062 17.28125 -5.21875 17.28125 -3.6875 C 17.28125 -1.90625 16.882812 -0.816406 16.09375 -0.421875 C 15.664062 -0.222656 15.285156 -0.101562 14.953125 -0.0625 C 14.628906 -0.0195312 14.160156 0 13.546875 0 C 10.597656 0 8.359375 -0.660156 6.828125 -1.984375 C 5.304688 -3.316406 4.546875 -5.570312 4.546875 -8.75 L 4.546875 -15.03125 C 4.003906 -14.945312 3.421875 -14.90625 2.796875 -14.90625 C 2.179688 -14.90625 1.664062 -15.144531 1.25 -15.625 C 0.84375 -16.101562 0.640625 -16.921875 0.640625 -18.078125 C 0.640625 -19.242188 0.707031 -20.085938 0.84375 -20.609375 C 0.988281 -21.128906 1.1875 -21.503906 1.4375 -21.734375 C 1.894531 -22.097656 2.460938 -22.28125 3.140625 -22.28125 L 4.546875 -22.125 L 4.546875 -26.484375 C 4.546875 -27.140625 4.566406 -27.625 4.609375 -27.9375 C 4.648438 -28.25 4.785156 -28.585938 5.015625 -28.953125 C 5.378906 -29.660156 6.46875 -30.015625 8.28125 -30.015625 C 10.207031 -30.015625 11.351562 -29.488281 11.71875 -28.4375 C 11.851562 -27.988281 11.921875 -27.269531 11.921875 -26.28125 L 11.921875 -22.125 C 13.171875 -22.226562 14.113281 -22.28125 14.75 -22.28125 C 15.382812 -22.28125 15.863281 -22.257812 16.1875 -22.21875 C 16.519531 -22.175781 16.898438 -22.046875 17.328125 -21.828125 C 18.054688 -21.453125 18.421875 -20.359375 18.421875 -18.546875 C 18.421875 -16.765625 18.039062 -15.675781 17.28125 -15.28125 C 16.851562 -15.082031 16.476562 -14.960938 16.15625 -14.921875 C 15.832031 -14.878906 15.34375 -14.859375 14.6875 -14.859375 Z M 14.6875 -14.859375 "/></g></g></g><g fill="rgb(100%, 100%, 100%)" fill-opacity="1"><g transform="translate(137.248658, 234.330131)"><g><path d="M 1.703125 -18.640625 C 1.703125 -19.285156 1.722656 -19.769531 1.765625 -20.09375 C 1.804688 -20.425781 1.925781 -20.800781 2.125 -21.21875 C 2.519531 -21.957031 3.625 -22.328125 5.4375 -22.328125 C 6.789062 -22.328125 7.753906 -22.085938 8.328125 -21.609375 C 8.804688 -21.210938 9.054688 -20.601562 9.078125 -19.78125 C 9.109375 -19.5 9.125 -19.085938 9.125 -18.546875 L 9.125 -3.6875 C 9.125 -3.039062 9.101562 -2.550781 9.0625 -2.21875 C 9.019531 -1.894531 8.882812 -1.523438 8.65625 -1.109375 C 8.289062 -0.367188 7.203125 0 5.390625 0 C 3.609375 0 2.519531 -0.378906 2.125 -1.140625 C 1.925781 -1.566406 1.804688 -1.9375 1.765625 -2.25 C 1.722656 -2.5625 1.703125 -3.054688 1.703125 -3.734375 Z M 8.671875 -26.5 C 8.460938 -26.09375 8.085938 -25.804688 7.546875 -25.640625 C 7.015625 -25.472656 6.300781 -25.390625 5.40625 -25.390625 C 4.519531 -25.390625 3.804688 -25.472656 3.265625 -25.640625 C 2.734375 -25.804688 2.359375 -26.101562 2.140625 -26.53125 C 1.929688 -26.957031 1.804688 -27.332031 1.765625 -27.65625 C 1.722656 -27.976562 1.703125 -28.460938 1.703125 -29.109375 C 1.703125 -29.765625 1.722656 -30.253906 1.765625 -30.578125 C 1.804688 -30.910156 1.925781 -31.273438 2.125 -31.671875 C 2.519531 -32.429688 3.625 -32.8125 5.4375 -32.8125 C 7.21875 -32.8125 8.289062 -32.429688 8.65625 -31.671875 C 8.882812 -31.242188 9.019531 -30.867188 9.0625 -30.546875 C 9.101562 -30.222656 9.125 -29.734375 9.125 -29.078125 C 9.125 -28.429688 9.101562 -27.941406 9.0625 -27.609375 C 9.019531 -27.285156 8.890625 -26.914062 8.671875 -26.5 Z M 8.671875 -26.5 "/></g></g></g><g fill="rgb(100%, 100%, 100%)" fill-opacity="1"><g transform="translate(148.075203, 234.330131)"><g><path d="M 14.140625 -22.375 C 16.960938 -22.375 19.316406 -21.289062 21.203125 -19.125 C 23.085938 -16.957031 24.03125 -14.316406 24.03125 -11.203125 L 24.03125 -3.734375 C 24.03125 -3.085938 24.007812 -2.597656 23.96875 -2.265625 C 23.925781 -1.941406 23.804688 -1.582031 23.609375 -1.1875 C 23.210938 -0.425781 22.109375 -0.046875 20.296875 -0.046875 C 18.285156 -0.046875 17.125 -0.566406 16.8125 -1.609375 C 16.644531 -2.085938 16.5625 -2.8125 16.5625 -3.78125 L 16.5625 -11.25 C 16.5625 -12.40625 16.226562 -13.304688 15.5625 -13.953125 C 14.894531 -14.609375 14 -14.9375 12.875 -14.9375 C 11.757812 -14.9375 10.851562 -14.597656 10.15625 -13.921875 C 9.46875 -13.242188 9.125 -12.351562 9.125 -11.25 L 9.125 -3.734375 C 9.125 -3.085938 9.101562 -2.597656 9.0625 -2.265625 C 9.019531 -1.941406 8.882812 -1.582031 8.65625 -1.1875 C 8.289062 -0.425781 7.203125 -0.046875 5.390625 -0.046875 C 3.609375 -0.046875 2.519531 -0.425781 2.125 -1.1875 C 1.925781 -1.613281 1.804688 -1.988281 1.765625 -2.3125 C 1.722656 -2.632812 1.703125 -3.125 1.703125 -3.78125 L 1.703125 -18.8125 C 1.703125 -19.425781 1.722656 -19.894531 1.765625 -20.21875 C 1.804688 -20.550781 1.941406 -20.914062 2.171875 -21.3125 C 2.566406 -22.019531 3.65625 -22.375 5.4375 -22.375 C 7.164062 -22.375 8.226562 -22.046875 8.625 -21.390625 C 8.90625 -20.910156 9.046875 -20.332031 9.046875 -19.65625 C 9.160156 -19.851562 9.414062 -20.132812 9.8125 -20.5 C 10.207031 -20.875 10.585938 -21.171875 10.953125 -21.390625 C 11.910156 -22.046875 12.972656 -22.375 14.140625 -22.375 Z M 14.140625 -22.375 "/></g></g></g><g fill="rgb(100%, 100%, 100%)" fill-opacity="1"><g transform="translate(173.804174, 234.330131)"><g><path d="M 23.265625 -13.859375 C 23.265625 -12.117188 22.832031 -10.832031 21.96875 -10 C 21.101562 -9.164062 20.148438 -8.75 19.109375 -8.75 L 9.046875 -8.75 C 9.046875 -7.957031 9.507812 -7.289062 10.4375 -6.75 C 11.375 -6.207031 12.3125 -5.9375 13.25 -5.9375 C 14.882812 -5.9375 16.171875 -6.109375 17.109375 -6.453125 L 17.578125 -6.625 C 18.253906 -6.9375 18.820312 -7.09375 19.28125 -7.09375 C 20.175781 -7.09375 20.953125 -6.453125 21.609375 -5.171875 C 21.972656 -4.410156 22.15625 -3.757812 22.15625 -3.21875 C 22.15625 -0.707031 19.144531 0.546875 13.125 0.546875 C 11.019531 0.546875 9.15625 0.1875 7.53125 -0.53125 C 5.90625 -1.25 4.640625 -2.203125 3.734375 -3.390625 C 1.953125 -5.679688 1.0625 -8.242188 1.0625 -11.078125 C 1.0625 -14.640625 2.210938 -17.488281 4.515625 -19.625 C 6.828125 -21.769531 9.707031 -22.84375 13.15625 -22.84375 C 17.09375 -22.84375 19.984375 -21.453125 21.828125 -18.671875 C 22.785156 -17.203125 23.265625 -15.597656 23.265625 -13.859375 Z M 14.3125 -12.609375 C 15.382812 -12.609375 15.921875 -13.0625 15.921875 -13.96875 C 15.921875 -14.613281 15.671875 -15.132812 15.171875 -15.53125 C 14.679688 -15.925781 13.972656 -16.125 13.046875 -16.125 C 12.128906 -16.125 11.21875 -15.75 10.3125 -15 C 9.40625 -14.25 8.953125 -13.453125 8.953125 -12.609375 Z M 14.3125 -12.609375 "/></g></g></g><g fill="rgb(100%, 100%, 100%)" fill-opacity="1"><g transform="translate(198.132058, 234.330131)"><g/></g></g><g fill="rgb(100%, 100%, 100%)" fill-opacity="1"><g transform="translate(208.873688, 234.330131)"><g><path d="M 9.21875 -6.28125 L 20.765625 -6.28125 C 21.691406 -6.28125 22.367188 -6.171875 22.796875 -5.953125 C 23.222656 -5.742188 23.503906 -5.410156 23.640625 -4.953125 C 23.785156 -4.503906 23.859375 -3.90625 23.859375 -3.15625 C 23.859375 -2.40625 23.785156 -1.800781 23.640625 -1.34375 C 23.503906 -0.894531 23.265625 -0.585938 22.921875 -0.421875 C 22.390625 -0.140625 21.65625 0 20.71875 0 L 5.4375 0 C 3.457031 0 2.296875 -0.535156 1.953125 -1.609375 C 1.785156 -2.066406 1.703125 -2.789062 1.703125 -3.78125 L 1.703125 -27.375 C 1.703125 -28.03125 1.722656 -28.519531 1.765625 -28.84375 C 1.804688 -29.164062 1.941406 -29.539062 2.171875 -29.96875 C 2.566406 -30.738281 3.664062 -31.125 5.46875 -31.125 C 7.457031 -31.125 8.632812 -30.597656 9 -29.546875 C 9.144531 -29.066406 9.21875 -28.332031 9.21875 -27.34375 Z M 9.21875 -6.28125 "/></g></g></g><g fill="rgb(100%, 100%, 100%)" fill-opacity="1"><g transform="translate(233.795966, 234.330131)"><g><path d="M 11.625 -0.078125 C 8.769531 -0.078125 6.398438 -1.160156 4.515625 -3.328125 C 2.640625 -5.492188 1.703125 -8.132812 1.703125 -11.25 L 1.703125 -18.671875 C 1.703125 -19.359375 1.722656 -19.851562 1.765625 -20.15625 C 1.804688 -20.46875 1.925781 -20.835938 2.125 -21.265625 C 2.519531 -22.035156 3.625 -22.421875 5.4375 -22.421875 C 7.414062 -22.421875 8.578125 -21.878906 8.921875 -20.796875 C 9.085938 -20.347656 9.171875 -19.628906 9.171875 -18.640625 L 9.171875 -11.203125 C 9.171875 -10.046875 9.503906 -9.140625 10.171875 -8.484375 C 10.835938 -7.835938 11.726562 -7.515625 12.84375 -7.515625 C 13.957031 -7.515625 14.859375 -7.851562 15.546875 -8.53125 C 16.242188 -9.207031 16.59375 -10.097656 16.59375 -11.203125 L 16.59375 -18.71875 C 16.59375 -19.375 16.613281 -19.863281 16.65625 -20.1875 C 16.695312 -20.507812 16.832031 -20.882812 17.0625 -21.3125 C 17.4375 -22.050781 18.523438 -22.421875 20.328125 -22.421875 C 22.117188 -22.421875 23.210938 -22.035156 23.609375 -21.265625 C 23.804688 -20.835938 23.925781 -20.460938 23.96875 -20.140625 C 24.007812 -19.816406 24.03125 -19.328125 24.03125 -18.671875 L 24.03125 -3.65625 C 24.03125 -3.03125 24.007812 -2.550781 23.96875 -2.21875 C 23.925781 -1.894531 23.789062 -1.535156 23.5625 -1.140625 C 23.132812 -0.410156 22.046875 -0.046875 20.296875 -0.046875 C 18.566406 -0.046875 17.503906 -0.382812 17.109375 -1.0625 C 16.828125 -1.539062 16.6875 -2.117188 16.6875 -2.796875 C 16.570312 -2.597656 16.316406 -2.316406 15.921875 -1.953125 C 15.523438 -1.585938 15.144531 -1.273438 14.78125 -1.015625 C 13.8125 -0.390625 12.757812 -0.078125 11.625 -0.078125 Z M 11.625 -0.078125 "/></g></g></g><g fill="rgb(100%, 100%, 100%)" fill-opacity="1"><g transform="translate(259.524937, 234.330131)"><g><path d="M 23.859375 -16.6875 C 25.523438 -14.707031 26.359375 -12.484375 26.359375 -10.015625 C 26.304688 -7.191406 25.335938 -4.820312 23.453125 -2.90625 C 21.566406 -1 19.28125 -0.046875 16.59375 -0.046875 L 5.4375 -0.046875 C 3.457031 -0.046875 2.296875 -0.582031 1.953125 -1.65625 C 1.785156 -2.132812 1.703125 -2.867188 1.703125 -3.859375 L 1.703125 -27.421875 C 1.703125 -28.097656 1.722656 -28.59375 1.765625 -28.90625 C 1.804688 -29.21875 1.941406 -29.585938 2.171875 -30.015625 C 2.566406 -30.773438 3.664062 -31.15625 5.46875 -31.15625 L 16.171875 -31.15625 C 18.773438 -31.15625 20.957031 -30.25 22.71875 -28.4375 C 24.550781 -26.601562 25.46875 -24.398438 25.46875 -21.828125 C 25.46875 -19.953125 24.929688 -18.238281 23.859375 -16.6875 Z M 18.84375 -10.4375 C 18.84375 -11.125 18.765625 -11.664062 18.609375 -12.0625 C 18.453125 -12.457031 18.191406 -12.738281 17.828125 -12.90625 C 17.265625 -13.132812 16.472656 -13.25 15.453125 -13.25 C 14.429688 -13.25 13.664062 -13.445312 13.15625 -13.84375 C 12.644531 -14.238281 12.390625 -15.050781 12.390625 -16.28125 C 12.390625 -17.507812 12.648438 -18.320312 13.171875 -18.71875 C 13.703125 -19.113281 14.578125 -19.3125 15.796875 -19.3125 C 16.921875 -19.3125 17.597656 -19.609375 17.828125 -20.203125 C 17.910156 -20.515625 17.953125 -21.023438 17.953125 -21.734375 C 17.953125 -22.441406 17.71875 -22.9375 17.25 -23.21875 C 16.789062 -23.5 16.09375 -23.640625 15.15625 -23.640625 L 9.21875 -23.640625 L 9.21875 -7.5625 L 16.171875 -7.5625 C 17.953125 -7.5625 18.84375 -8.519531 18.84375 -10.4375 Z M 18.84375 -10.4375 "/></g></g></g><g fill="rgb(100%, 100%, 100%)" fill-opacity="1"><g transform="translate(286.95219, 234.330131)"><g><path d="M 23.265625 -13.859375 C 23.265625 -12.117188 22.832031 -10.832031 21.96875 -10 C 21.101562 -9.164062 20.148438 -8.75 19.109375 -8.75 L 9.046875 -8.75 C 9.046875 -7.957031 9.507812 -7.289062 10.4375 -6.75 C 11.375 -6.207031 12.3125 -5.9375 13.25 -5.9375 C 14.882812 -5.9375 16.171875 -6.109375 17.109375 -6.453125 L 17.578125 -6.625 C 18.253906 -6.9375 18.820312 -7.09375 19.28125 -7.09375 C 20.175781 -7.09375 20.953125 -6.453125 21.609375 -5.171875 C 21.972656 -4.410156 22.15625 -3.757812 22.15625 -3.21875 C 22.15625 -0.707031 19.144531 0.546875 13.125 0.546875 C 11.019531 0.546875 9.15625 0.1875 7.53125 -0.53125 C 5.90625 -1.25 4.640625 -2.203125 3.734375 -3.390625 C 1.953125 -5.679688 1.0625 -8.242188 1.0625 -11.078125 C 1.0625 -14.640625 2.210938 -17.488281 4.515625 -19.625 C 6.828125 -21.769531 9.707031 -22.84375 13.15625 -22.84375 C 17.09375 -22.84375 19.984375 -21.453125 21.828125 -18.671875 C 22.785156 -17.203125 23.265625 -15.597656 23.265625 -13.859375 Z M 14.3125 -12.609375 C 15.382812 -12.609375 15.921875 -13.0625 15.921875 -13.96875 C 15.921875 -14.613281 15.671875 -15.132812 15.171875 -15.53125 C 14.679688 -15.925781 13.972656 -16.125 13.046875 -16.125 C 12.128906 -16.125 11.21875 -15.75 10.3125 -15 C 9.40625 -14.25 8.953125 -13.453125 8.953125 -12.609375 Z M 14.3125 -12.609375 "/></g></g></g><g fill="rgb(100%, 100%, 100%)" fill-opacity="1"><g transform="translate(311.280061, 234.330131)"><g><path d="M 16.21875 -20 C 16.382812 -21.582031 17.503906 -22.375 19.578125 -22.375 C 20.671875 -22.375 21.488281 -22.285156 22.03125 -22.109375 C 22.570312 -21.941406 22.945312 -21.644531 23.15625 -21.21875 C 23.363281 -20.800781 23.488281 -20.425781 23.53125 -20.09375 C 23.582031 -19.769531 23.609375 -19.285156 23.609375 -18.640625 L 23.609375 -3.78125 C 23.609375 -3.125 23.582031 -2.632812 23.53125 -2.3125 C 23.488281 -1.988281 23.367188 -1.613281 23.171875 -1.1875 C 22.773438 -0.445312 21.804688 -0.078125 20.265625 -0.078125 C 18.722656 -0.078125 17.691406 -0.269531 17.171875 -0.65625 C 16.648438 -1.039062 16.347656 -1.597656 16.265625 -2.328125 C 15.210938 -0.828125 13.460938 -0.078125 11.015625 -0.078125 C 8.566406 -0.078125 6.296875 -1.195312 4.203125 -3.4375 C 2.109375 -5.675781 1.0625 -8.273438 1.0625 -11.234375 C 1.0625 -14.191406 2.113281 -16.78125 4.21875 -19 C 6.332031 -21.21875 8.648438 -22.328125 11.171875 -22.328125 C 12.128906 -22.328125 13.003906 -22.15625 13.796875 -21.8125 C 14.585938 -21.476562 15.140625 -21.160156 15.453125 -20.859375 C 15.765625 -20.566406 16.019531 -20.28125 16.21875 -20 Z M 8.484375 -11.15625 C 8.484375 -10.226562 8.851562 -9.390625 9.59375 -8.640625 C 10.332031 -7.890625 11.222656 -7.515625 12.265625 -7.515625 C 13.316406 -7.515625 14.1875 -7.894531 14.875 -8.65625 C 15.570312 -9.425781 15.921875 -10.269531 15.921875 -11.1875 C 15.921875 -12.101562 15.585938 -12.957031 14.921875 -13.75 C 14.253906 -14.539062 13.363281 -14.9375 12.25 -14.9375 C 11.132812 -14.9375 10.226562 -14.539062 9.53125 -13.75 C 8.832031 -12.957031 8.484375 -12.09375 8.484375 -11.15625 Z M 8.484375 -11.15625 "/></g></g></g><g fill="rgb(100%, 100%, 100%)" fill-opacity="1"><g transform="translate(336.584457, 234.330131)"><g><path d="M 14.140625 -22.375 C 16.960938 -22.375 19.316406 -21.289062 21.203125 -19.125 C 23.085938 -16.957031 24.03125 -14.316406 24.03125 -11.203125 L 24.03125 -3.734375 C 24.03125 -3.085938 24.007812 -2.597656 23.96875 -2.265625 C 23.925781 -1.941406 23.804688 -1.582031 23.609375 -1.1875 C 23.210938 -0.425781 22.109375 -0.046875 20.296875 -0.046875 C 18.285156 -0.046875 17.125 -0.566406 16.8125 -1.609375 C 16.644531 -2.085938 16.5625 -2.8125 16.5625 -3.78125 L 16.5625 -11.25 C 16.5625 -12.40625 16.226562 -13.304688 15.5625 -13.953125 C 14.894531 -14.609375 14 -14.9375 12.875 -14.9375 C 11.757812 -14.9375 10.851562 -14.597656 10.15625 -13.921875 C 9.46875 -13.242188 9.125 -12.351562 9.125 -11.25 L 9.125 -3.734375 C 9.125 -3.085938 9.101562 -2.597656 9.0625 -2.265625 C 9.019531 -1.941406 8.882812 -1.582031 8.65625 -1.1875 C 8.289062 -0.425781 7.203125 -0.046875 5.390625 -0.046875 C 3.609375 -0.046875 2.519531 -0.425781 2.125 -1.1875 C 1.925781 -1.613281 1.804688 -1.988281 1.765625 -2.3125 C 1.722656 -2.632812 1.703125 -3.125 1.703125 -3.78125 L 1.703125 -18.8125 C 1.703125 -19.425781 1.722656 -19.894531 1.765625 -20.21875 C 1.804688 -20.550781 1.941406 -20.914062 2.171875 -21.3125 C 2.566406 -22.019531 3.65625 -22.375 5.4375 -22.375 C 7.164062 -22.375 8.226562 -22.046875 8.625 -21.390625 C 8.90625 -20.910156 9.046875 -20.332031 9.046875 -19.65625 C 9.160156 -19.851562 9.414062 -20.132812 9.8125 -20.5 C 10.207031 -20.875 10.585938 -21.171875 10.953125 -21.390625 C 11.910156 -22.046875 12.972656 -22.375 14.140625 -22.375 Z M 14.140625 -22.375 "/></g></g></g></svg>