<?xml version="1.0" encoding="UTF-8" standalone="no"?>
<!-- Created with Inkscape (http://www.inkscape.org/) -->

<svg
   width="23.818308mm"
   height="23.812456mm"
   viewBox="0 0 23.818308 23.812456"
   version="1.1"
   id="svg17"
   xmlns="http://www.w3.org/2000/svg"
   xmlns:svg="http://www.w3.org/2000/svg">
  <defs
     id="defs14" />
  <g
     id="layer1"
     transform="translate(-92.372853,-3.9542805)">
    <g
       id="g211"
       transform="matrix(0.26458333,0,0,0.26458333,12.206972,3.9495415)"
       style="fill:#ffffff">
      <g
         data-v-423bf9ae=""
         id="ff9a89ea-bac2-49c6-971b-a517cd492669"
         fill="#000000"
         transform="matrix(6.036217,0,0,6.036217,-6.1569548,82.718309)"
         style="fill:#ffffff" />
      <g
         data-v-423bf9ae=""
         id="36932632-71f3-4003-bd8d-f25a39800c9a"
         transform="matrix(1.0002351,0,0,1.0002351,297.9873,-5.0011799)"
         stroke="none"
         fill="#000000"
         style="fill:#ffffff">
        <path
           id="path198"
           style="fill:#ffffff;stroke-width:1.00024"
           transform="matrix(0.99976497,0,0,0.99976497,-344.043,-9.9238881)"
           d="m 404.60938,14.945312 c -3.99797,0 -7.60715,2.545142 -8.98047,6.332032 0,0 -20.24672,55.878533 -20.26172,55.935547 -0.007,0.02201 -1.39844,25.187499 -1.39844,25.187499 a 2.365556,2.365556 0 0 0 1.56055,2.40234 2.3805595,2.3805595 0 0 0 2.74609,-0.85156 c 0,0 15.02044,-20.11309 15.02344,-20.121092 0.028,-0.06101 20.29297,-55.945312 20.29297,-55.945312 1.80842,-4.97817 -0.73953,-10.51432 -5.67969,-12.34375 a 9.4682253,9.4682253 0 0 0 -3.30273,-0.595704 z m 0,4.734376 c 0.55813,0 1.1114,0.100781 1.64453,0.298828 2.50458,0.927218 3.7914,3.751276 2.86718,6.296875 l -0.36132,0.996093 -9.03516,-3.347656 0.37695,-1.039062 c 0.69517,-1.916451 2.50631,-3.205078 4.50782,-3.205078 z m -6.5,8.699218 9.03515,3.347656 -17.42773,48.083985 -9.04102,-3.347656 z m 24.61132,13.117188 a 2.3775588,2.3775588 0 0 0 -2.23437,3.939453 l 13.0664,14.322265 -13.0664,14.322266 a 2.3775588,2.3775588 0 0 0 1.75586,3.978516 2.3725576,2.3725576 0 0 0 1.75586,-0.775391 l 14.52929,-15.923828 a 2.3775588,2.3775588 0 0 0 0,-3.203125 L 423.99805,42.230469 a 2.3775588,2.3775588 0 0 0 -1.27735,-0.734375 z m -57.16797,0.0078 a 2.3778885,2.3778885 0 0 0 -1.27734,0.726563 l -14.5293,15.925781 a 2.3775588,2.3775588 0 0 0 0,3.203125 l 14.5293,15.923828 a 2.3725576,2.3725576 0 0 0 1.75586,0.775391 2.3775588,2.3775588 0 0 0 1.75781,-3.978516 L 354.7207,59.757812 367.78906,45.435547 a 2.3778885,2.3778885 0 0 0 -2.23633,-3.931641 z m 14.36915,39.732422 7.33203,2.714844 -8.63086,12.177734 z" />
      </g>
    </g>
  </g>
</svg>
