<?xml version="1.0" encoding="UTF-8" standalone="no"?>
<!-- Created with Inkscape (http://www.inkscape.org/) -->

<svg
   width="3.968755mm"
   height="4.2333331mm"
   viewBox="0 0 3.968755 4.2333331"
   version="1.1"
   id="svg5"
   inkscape:version="1.1.2 (b8e25be833, 2022-02-05)"
   sodipodi:docname="think-icon.svg"
   xmlns:inkscape="http://www.inkscape.org/namespaces/inkscape"
   xmlns:sodipodi="http://sodipodi.sourceforge.net/DTD/sodipodi-0.dtd"
   xmlns="http://www.w3.org/2000/svg"
   xmlns:svg="http://www.w3.org/2000/svg">
  <sodipodi:namedview
     id="namedview7"
     pagecolor="#505050"
     bordercolor="#ffffff"
     borderopacity="1"
     inkscape:pageshadow="0"
     inkscape:pageopacity="0"
     inkscape:pagecheckerboard="1"
     inkscape:document-units="mm"
     showgrid="false"
     inkscape:zoom="24.886869"
     inkscape:cx="15.449915"
     inkscape:cy="3.2949103"
     inkscape:window-width="2560"
     inkscape:window-height="1369"
     inkscape:window-x="-8"
     inkscape:window-y="-8"
     inkscape:window-maximized="1"
     inkscape:current-layer="layer1" />
  <defs
     id="defs2" />
  <g
     inkscape:label="Layer 1"
     inkscape:groupmode="layer"
     id="layer1"
     transform="translate(-37.479538,-51.976117)">
    <path
       d="m 39.596213,51.976117 c -0.25453,0 -0.45509,0.06403 -0.60987,0.169862 -0.15425,0.10504 -0.25479,0.245798 -0.32014,0.386292 -0.0873,0.186796 -0.11536,0.380206 -0.12436,0.506677 -0.17092,0.0127 -0.3466,0.05371 -0.4908,0.150019 -0.18997,0.126735 -0.30692,0.33602 -0.30692,0.639233 0,0.303212 0.11695,0.512498 0.30692,0.639233 0.18071,0.120386 0.4101,0.154517 0.61912,0.154517 h 1.85209 c 0.20664,0 0.43656,-0.02963 0.61806,-0.148167 0.19209,-0.125412 0.30798,-0.336021 0.30798,-0.645583 0,-0.303213 -0.11695,-0.512498 -0.30692,-0.639233 -0.14446,-0.09631 -0.31961,-0.137319 -0.49106,-0.150019 -0.009,-0.126471 -0.0368,-0.319881 -0.12383,-0.506942 a 0.94059375,0.94059375 0 0 0 -0.32014,-0.386291 c -0.15505,-0.105305 -0.35587,-0.169598 -0.61013,-0.169598 z m -0.79375,1.190625 c 0,-0.06429 7.9e-4,-0.303213 0.10318,-0.522817 0.0503,-0.107685 0.12356,-0.206904 0.22966,-0.2794 0.10584,-0.07223 0.25241,-0.123825 0.46091,-0.123825 0.20849,0 0.35533,0.05159 0.4609,0.123825 0.1061,0.0725 0.17912,0.171715 0.22939,0.2794 0.10266,0.219604 0.10346,0.458523 0.10346,0.522817 a 0.13229167,0.13229167 0 0 0 0.13229,0.132291 c 0.18785,0 0.35533,0.03202 0.47228,0.110067 0.10742,0.0717 0.18918,0.193146 0.18918,0.4191 0,0.23495 -0.0825,0.355071 -0.18812,0.424127 -0.11642,0.0762 -0.28311,0.10504 -0.47334,0.10504 h -1.85209 c -0.18785,0 -0.35533,-0.03202 -0.47228,-0.110067 -0.10768,-0.0717 -0.18917,-0.193146 -0.18917,-0.4191 0,-0.225954 0.0815,-0.347398 0.18917,-0.4191 0.11695,-0.07805 0.28443,-0.110067 0.47228,-0.110067 a 0.13229167,0.13229167 0 0 0 0.1323,-0.132291 z m 0.26458,2.778125 a 0.529167,0.529167 0 1 0 0,-1.058334 0.529167,0.529167 0 0 0 0,1.058334 z m 0,-0.264584 a 0.26458333,0.26458333 0 1 1 0,-0.529166 0.26458333,0.26458333 0 0 1 0,0.529166 z m -1.19063,0.529167 a 0.396875,0.396875 0 1 0 0,-0.79375 0.396875,0.396875 0 0 0 0,0.79375 z m 0,-0.264583 a 0.132292,0.132292 0 1 1 0,-0.264584 0.132292,0.132292 0 0 1 0,0.264584 z"
       fill="currentColor"
       id="path19"
       style="stroke-width:0.264583;fill-opacity:1;fill:#ffffff" />
  </g>
</svg>
